<?xml version="1.0" standalone="no"?>
<!DOCTYPE svg PUBLIC "-//W3C//DTD SVG 20010904//EN"
 "http://www.w3.org/TR/2001/REC-SVG-20010904/DTD/svg10.dtd">
<svg version="1.0" xmlns="http://www.w3.org/2000/svg"
 width="700.000000pt" height="700.000000pt" viewBox="0 0 700.000000 700.000000"
 preserveAspectRatio="xMidYMid meet">
<metadata>
Created by potrace 1.11, written by Peter Selinger 2001-2013
</metadata>
<g transform="translate(0.000000,700.000000) scale(0.100000,-0.100000)"
fill="#000000" stroke="none">
<path d="M1656 6984 c-71 -22 -159 -112 -180 -184 -23 -78 -24 -980 -1 -1057
20 -68 88 -143 157 -174 115 -51 248 -21 333 73 75 83 75 85 75 628 0 561 2
550 -89 641 -85 84 -180 108 -295 73z"/>
<path d="M2822 6982 c-74 -27 -122 -69 -159 -141 l-33 -63 0 -506 0 -507 24
-51 c50 -107 143 -167 261 -168 120 -1 217 62 269 173 20 45 21 59 21 551 0
492 -1 506 -21 551 -66 142 -221 211 -362 161z"/>
<path d="M4010 6991 c-87 -27 -155 -87 -194 -170 -20 -45 -21 -59 -21 -551 0
-492 1 -506 21 -551 52 -111 149 -174 269 -173 118 1 211 61 261 168 l24 51 0
507 0 506 -33 63 c-38 74 -94 121 -169 144 -55 16 -117 18 -158 6z"/>
<path d="M507 4946 c-101 -27 -185 -117 -207 -219 -7 -38 -10 -462 -8 -1448 4
-1553 0 -1460 73 -1686 76 -232 180 -400 359 -578 224 -223 474 -354 791 -412
80 -15 224 -17 1300 -21 1300 -4 1426 0 1605 43 624 152 1072 680 1116 1318 6
83 9 97 24 97 66 0 242 25 328 46 552 136 963 566 1083 1134 30 140 32 398 5
540 -57 297 -195 559 -406 770 -242 242 -542 383 -892 420 -58 6 -1040 9
-2608 9 -2029 0 -2524 -3 -2563 -13z m4451 -1808 l-3 -1243 -28 -88 c-101
-324 -349 -555 -667 -623 -101 -21 -2588 -21 -2690 1 -167 35 -308 113 -435
240 -147 147 -232 320 -255 520 -11 100 -15 2417 -3 2428 3 4 924 7 2045 7
l2039 0 -3 -1242z m790 1211 c307 -70 558 -317 643 -634 28 -103 31 -305 6
-408 -79 -325 -335 -584 -649 -656 -46 -11 -110 -21 -143 -23 l-60 -3 -3 877
-2 878 62 -6 c35 -3 100 -14 146 -25z"/>
</g>
</svg>
